<?xml version="1.0" standalone="no"?>
<!DOCTYPE svg PUBLIC "-//W3C//DTD SVG 1.0//EN" "http://www.w3.org/TR/2001/REC-SVG-20010904/DTD/svg10.dtd">
<svg xmlns="http://www.w3.org/2000/svg" xmlns:xlink="http://www.w3.org/1999/xlink" id="body_1" width="256" height="256">

<g transform="matrix(1 0 0 1 0 0)">
	<g transform="matrix(0.72 0 0 0.72 128 128)">
		<g transform="matrix(3.89 0 0 3.89 -175.05 -175.05)">
            <path transform="matrix(1 0 0 1 0 0)"  d="M74.396 66.93L27.276005 66.93C 23.785006 66.93 21.727005 64.265 21.499004 61.631C 21.321005 59.574 22.240004 57.305 24.291004 56.125L24.291004 56.125L16.745 22.34C 16.613 21.748001 16.757 21.127 17.137001 20.653C 17.516 20.178999 18.091002 19.903 18.698002 19.903L18.698002 19.903L88 19.903C 88.647 19.903 89.256 20.217 89.631 20.744999C 90.006 21.272999 90.102 21.950998 89.889 22.561998L89.889 22.561998L81.906 45.437996C 80.915 48.275997 78.46 50.358997 75.5 50.875996L75.5 50.875996L26.978 59.355995C 26.972 59.356995 26.966002 59.357994 26.959002 59.358994C 25.460001 59.62599 25.452002 60.899994 25.486002 61.284992C 25.519003 61.670994 25.747002 62.928993 27.278002 62.928993L27.278002 62.928993L74.398 62.928993C 75.502 62.928993 76.398 63.824993 76.398 64.92899C 76.398 66.03299 75.501 66.93 74.396 66.93zM21.193 23.904L28.159 55.09L74.811005 46.938C 76.344 46.67 77.616005 45.591 78.129005 44.121L78.129005 44.121L85.184006 23.904999L21.193 23.904999z" stroke="none" fill="#000000" fill-rule="nonzero" />
            <path transform="matrix(1 0 0 1 0 0)"  d="M27.846 83.111C 24.231 83.111 21.291 80.171 21.291 76.556C 21.291 72.941 24.231 70 27.846 70C 31.461 70 34.402 72.94 34.402 76.556C 34.401 80.171 31.46 83.111 27.846 83.111zM27.846 74.001C 26.437 74.001 25.291 75.147 25.291 76.557C 25.291 77.965 26.437 79.112 27.846 79.112C 29.255001 79.112 30.402 77.965996 30.402 76.557C 30.401 75.147 29.255 74.001 27.846 74.001z" stroke="none" fill="#000000" fill-rule="nonzero" />
            <path transform="matrix(1 0 0 1 0 0)"  d="M68.845 83.111C 65.23 83.111 62.289 80.171 62.289 76.556C 62.289 72.941 65.229004 70 68.845 70C 72.461 70 75.401 72.94 75.401 76.556C 75.4 80.171 72.46 83.111 68.845 83.111zM68.845 74.001C 67.436005 74.001 66.289 75.147 66.289 76.557C 66.289 77.965 67.435005 79.112 68.845 79.112C 70.255 79.112 71.401 77.965996 71.401 76.557C 71.4 75.147 70.254 74.001 68.845 74.001z" stroke="none" fill="#000000" fill-rule="nonzero" />
            <path transform="matrix(1 0 0 1 0 0)"  d="M18.695 23.904C 17.779 23.904 16.953 23.271 16.744999 22.34L16.744999 22.34L15.337999 16.039C 14.660999 13.006 12.016999 10.888 8.91 10.888L8.91 10.888L2 10.888C 0.896 10.888 0 9.992 0 8.888C 0 7.7839994 0.896 6.8879995 2 6.8879995L2 6.8879995L8.909 6.8879995C 13.904 6.8879995 18.153 10.292 19.242 15.167L19.242 15.167L20.649 21.468C 20.89 22.546 20.211 23.615 19.133 23.856C 18.986 23.889 18.839 23.904 18.695 23.904z" stroke="none" fill="#000000" fill-rule="nonzero" />
		</g>
	</g>
</g>
</svg>